PathFileType	4	(X/Y/Z)	50_2_9_p0_0-1090_filt_butterworth.trc
DataRate	CameraRate	NumFrames	NumMarkers	Units	OrigDataRate	OrigDataStartFrame	OrigNumFrames
48.0	48.0	5	27	m	48.0	136	1090
Frame#	Time	RHip			RKnee			RAnkle			RBigToe			RSmallToe			RHeel			LHip			LKnee			LAnkle			LBigToe			LSmallToe			LHeel			Neck			Head			Nose			RShoulder			RElbow			RWrist			RThumb			RIndex			RPinky			LShoulder			LElbow			LWrist			LThumb			LIndex			LPinky			
		X1	Y1	Z1	X2	Y2	Z2	X3	Y3	Z3	X4	Y4	Z4	X5	Y5	Z5	X6	Y6	Z6	X7	Y7	Z7	X8	Y8	Z8	X9	Y9	Z9	X10	Y10	Z10	X11	Y11	Z11	X12	Y12	Z12	X13	Y13	Z13	X14	Y14	Z14	X15	Y15	Z15	X16	Y16	Z16	X17	Y17	Z17	X18	Y18	Z18	X19	Y19	Z19	X20	Y20	Z20	X21	Y21	Z21	X22	Y22	Z22	X23	Y23	Z23	X24	Y24	Z24	X25	Y25	Z25	X26	Y26	Z26	X27	Y27	Z27	
136	2.833333333333333	0.29321971612537856	0.7341528932043403	0.4763690135280363	0.30479182282481343	0.8627599817454835	0.8993555674590392	0.3081629532467779	1.0205875567088025	1.3481628840615358	0.25663336095667233	0.8568519444967844	1.4126579038070308	0.3271858518723111	0.8548552031608274	1.411232600290747	0.28385344478458874	1.1465400462727535	1.3981048887678371	0.08272465575572324	0.7478953945636142	0.4876754465395271	0.0937276957911014	0.8866659086516417	0.9234104094057084	0.09627436921634114	1.0199377358631856	1.330866227157129	0.1059555234908465	0.8765489996282173	1.40141983464126	0.03474343713312226	0.8947327293122653	1.3898933958148942	0.11563500401444418	1.0726911272699202	1.3894766684691862	0.18973259691218786	0.623031387002232	-0.003396174686019875	0.20715218105857067	0.47169084760812063	-0.2174626461665092	0.1936042920754676	0.42687541832389075	-0.0754451815056997	0.3399944563250571	0.5735136963959109	0.08761862780958365	0.41585216917230927	0.713170212290738	0.3481791997725582	0.4299630144622376	0.709036781415973	0.5931830787591782	0.3918059147277514	0.6276642550426713	0.6815520623673318	0.4139919217533734	0.6249826534730545	0.710386519505358	0.4358340249457694	0.748072282787946	0.7227345068094975	0.05117547843002339	0.6363862451555925	0.07901285468689699	-0.01574893264712367	0.7230561060399173	0.3396685626164958	-0.04377214913042552	0.7664922760860495	0.5957710869835089	-0.049043001352787746	0.7345343350375009	0.671034721181117	-0.07402432352367486	0.6864800788624267	0.6966749131745004	-0.07717859229797296	0.7185161194132597	0.6951784707891506
137	2.8541666666666665	0.2932090441649865	0.7341609146624323	0.47654465751613323	0.30684238690458265	0.8626952503844764	0.8992807410813403	0.3068223727779022	1.0203531921723161	1.348080256585161	0.2566396627550808	0.85684875889055	1.4126556616651431	0.3272044544862144	0.8549377659564329	1.4111616509387144	0.2814306161466624	1.1443608146257072	1.3981512188130778	0.08271891238832954	0.7478989634148409	0.48767782879053434	0.09374406199074596	0.8861987120577477	0.9233605483950729	0.09625433687360566	1.0198936781981565	1.330835604232587	0.10504233563037527	0.8723649808298549	1.4000920063711717	0.0347091757926921	0.8944127991461843	1.3897908118441509	0.11562870369204337	1.0726016275185264	1.3894476909392832	0.18971979316282167	0.6229939145138892	-0.003399816286115155	0.20722651618386362	0.4715750459280663	-0.21741358959110796	0.1935707811818423	0.4268465181253306	-0.07544463777701374	0.3400008651389812	0.5730964316666914	0.08622853345663313	0.4158553946164435	0.713192670644532	0.3481657777079382	0.4299842069281217	0.7090445222191453	0.5932037961909423	0.39153052831614	0.6268929497671402	0.6803801852703277	0.41386589983790256	0.6250148895729604	0.7102874769123526	0.434960236361567	0.7548271745501549	0.7227127779336295	0.05117501192146948	0.6363916210928647	0.0790217881209246	-0.01578317737454512	0.7223431782615918	0.33963216828787035	-0.04376786864952829	0.76649307202397	0.5957732488910166	-0.04905121621559794	0.7345903038408946	0.6710599259173035	-0.07406992882607125	0.6864730060778802	0.6966446969783618	-0.0789101371739297	0.7205796039533058	0.6954063368159346
138	2.875	0.29323975317842554	0.7341215306463481	0.4763337936534568	0.3081243550379041	0.862875425624021	0.8992028660642566	0.30481704256463804	1.0199640576501532	1.3479687532757743	0.2566485154470951	0.8568330420688227	1.412657358577185	0.3272329694315959	0.8550592361191822	1.411158864521416	0.2797499345062893	1.142974089100894	1.3983490113423351	0.0827144920148148	0.7478851652537849	0.48736665566121906	0.09375251784358092	0.8854604028690023	0.9225574636420376	0.09624085339745321	1.0198464561558909	1.3308184496605786	0.10368364567512045	0.866138984634594	1.3980977726853219	0.034721013324741874	0.8942066150118011	1.3897140302142947	0.11568426534828724	1.072779103944207	1.3894747042347084	0.18972617384452234	0.6230070394884534	-0.0034070791114333304	0.20731466894688547	0.4714407877245208	-0.21737505351203915	0.19353796575383386	0.4268272485743486	-0.07543607245940698	0.3399283360271589	0.5726539017737586	0.08526767026621065	0.4158739260374942	0.7131881668129738	0.3480879456440844	0.4300130590138366	0.709151990272892	0.5931730007593743	0.391442705804824	0.6265042625473558	0.6797937750332371	0.413582561833359	0.6250456881849088	0.7101913459527331	0.4345702491547484	0.7578236696208203	0.7214445409040442	0.051175467364676874	0.6364401371115076	0.07902778422188106	-0.015667597575938975	0.7223162446034782	0.3408022475675059	-0.043773490139805055	0.7665020241710566	0.5957838164711383	-0.0488154409590497	0.735615641331	0.6709420118333643	-0.07405261796239007	0.6865928860370815	0.6966147411414731	-0.0801223933485355	0.7182315379237787	0.6951464072081384
139	2.895833333333333	0.2933595001417022	0.7339219264831749	0.47517131194823914	0.30834926084093534	0.8629910898027764	0.8991789747302419	0.30344744297550663	1.0196926471850292	1.3478907760042278	0.256641005276972	0.8568430439439295	1.4126807217341284	0.3272229074831097	0.8551035993133531	1.4111784776975287	0.27934916804123444	1.1426587852801215	1.398327245441171	0.08269478554063428	0.7478196764803801	0.4862709565018284	0.0937341376773171	0.88454139334872	0.9202636931271894	0.09622058849896292	1.019790201624733	1.330841491336697	0.10275460666827618	0.8618536027041193	1.3967150559469417	0.03475230781066554	0.8941097229917712	1.3896946235600955	0.11567177378304824	1.0728655035971513	1.3895428084500228	0.18973758152385278	0.6230456212837214	-0.003420664178897934	0.20724889143207798	0.47139128790533813	-0.21735684274941114	0.19353825077258155	0.4268678626950287	-0.07543544474335337	0.33988869195324256	0.5725083435088026	0.08505603711357392	0.4159073406645616	0.7131999160743909	0.348029640226844	0.4300121127989014	0.7092748674763094	0.5931245971199345	0.3915262598241551	0.6265010832791977	0.6797870474309025	0.4132882357767833	0.624983864888464	0.7101303486054326	0.4348972778519946	0.7553300604958042	0.72006927870975	0.05118074379862969	0.6365173634521674	0.07902188513823713	-0.01555345799540089	0.7230624002984003	0.34249593226793545	-0.0437821697700892	0.7665094394010314	0.5958032790685028	-0.04795898892838383	0.7393709786300571	0.6708537278845094	-0.07399596680514005	0.6868036126270909	0.6964974776326333	-0.08063901608197199	0.7165718188598178	0.694928044759817
140	2.9166666666666665	0.29351915654062827	0.733588282707494	0.47342492236884426	0.308161483982072	0.8629413855267987	0.8993137931280211	0.3031680245989945	1.019646059030198	1.3478841208084198	0.2566095175628226	0.8568787159574813	1.4127348901670218	0.32723066979690785	0.8547094214910274	1.4110923753490519	0.27985491131765594	1.1427288674418796	1.3975807285334791	0.0826366286100771	0.7477945737458832	0.484692790832986	0.09368432395969699	0.88388401670345	0.9172649793224705	0.09621942348995943	1.019767205823362	1.3308842135914662	0.10256065098685174	0.8609429293805864	1.3964161880663013	0.03475703131521577	0.8941310604738848	1.3897243433360689	0.11552139687985882	1.0727276021686847	1.3895733318537664	0.1897325369189975	0.6230625478639219	-0.0034319724101076867	0.207085565165259	0.47143526897879084	-0.21734175963090868	0.1935621233541821	0.4269675597422689	-0.07544726121933207	0.33980491712464556	0.5725550895304758	0.0851604666769325	0.41594695407218213	0.7132614380286602	0.34809368422306475	0.4299065628325796	0.7091123093560401	0.5930985532880053	0.3915876569953601	0.6266258303959324	0.6799097042237487	0.41315406295652485	0.6248483664203875	0.7101300259103074	0.4351777135632788	0.7529863130863097	0.719700919769675	0.051188327497645195	0.6365746617471305	0.07900911383961742	-0.015563462979848796	0.7237917952169889	0.3436484147900458	-0.04378547039431794	0.766516577274146	0.5958205580644398	-0.0467253663298835	0.7447533355611726	0.6714772237345068	-0.07393319600054417	0.6870866634933812	0.6963340126040822	-0.08021322698128933	0.7167400776215561	0.6949231160718621
